<?xml version="1.0" encoding="utf-8"?>
<!-- Generator: Adobe Illustrator 22.1.0, SVG Export Plug-In . SVG Version: 6.00 Build 0)  -->
<svg version="1.1" id="Layer_1" xmlns="http://www.w3.org/2000/svg" xmlns:xlink="http://www.w3.org/1999/xlink" x="0px" y="0px"
	 viewBox="0 0 440.8 145.7" style="enable-background:new 0 0 440.8 145.7;" xml:space="preserve">
<style type="text/css">
	.st0{fill:#FFFFFF;}
	.st1{fill:#F2F2F2;}
	.st2{fill:#9E005D;}
	.st3{fill:#ED1E79;}
	.st4{fill:#5020B5;}
	.st5{fill:#3A3A3A;}
</style>
<g>
	<path class="st0" d="M82.9,132.1c0-2.1-0.7-4-1.8-5.6L127.7,80c1.4,0.7,2.9,1.2,4.6,1.2c5.3,0,9.6-4.3,9.6-9.6
		c0-5.3-4.3-9.6-9.6-9.6c-1.7,0-3.4,0.5-4.8,1.3L81,16.7c0.8-1.4,1.3-3,1.3-4.8c0-5.3-4.3-9.6-9.6-9.6c-5.3,0-9.6,4.3-9.6,9.6
		c0,1.7,0.5,3.4,1.3,4.8L17.6,63.4c-1.4-0.8-3-1.2-4.7-1.2c-5.3,0-9.6,4.3-9.6,9.6c0,5.3,4.3,9.6,9.6,9.6c1.8,0,3.4-0.5,4.9-1.3
		L65,127.2c-0.8,1.4-1.3,3.1-1.3,4.9c0,5.3,4.3,9.6,9.6,9.6C78.6,141.8,82.9,137.4,82.9,132.1z M78.7,19.4l46.1,46.1
		c-1,1.3-1.7,2.8-2,4.4H78.3c-0.7-1.6-2.1-2.9-3.8-3.2l0-45.2C76,21.1,77.5,20.4,78.7,19.4z M42.3,99.5L20.5,77.7
		c1.3-1.6,2.1-3.7,2.1-6c0-2.3-0.8-4.5-2.2-6.1l46.3-46.3c1.2,1,2.7,1.7,4.3,2l0,45.7c-1.8,0.9-3,2.7-3,4.8c0,0.6,0.1,1.2,0.3,1.7
		L42.3,99.5z M71.3,73.4c-0.2-0.2-0.3-0.5-0.4-0.8c-0.1-0.3-0.1-0.5-0.1-0.8c0-0.3,0-0.5,0.1-0.8c0-0.1,0.1-0.2,0.1-0.3
		c0.4-0.9,1.3-1.5,2.3-1.5c0.4,0,0.8,0.1,1.2,0.3c0.1,0.1,0.3,0.2,0.4,0.2c0.6,0.5,1,1.2,1,2c0,0.6-0.2,1.1-0.5,1.6
		c-0.5,0.6-1.2,1-2,1c-0.3,0-0.5,0-0.7-0.1C72,74.1,71.6,73.8,71.3,73.4z M67.3,124.6L44.8,102l25.6-25.6c0.8,0.5,1.8,0.8,2.9,0.8
		c2.4,0,4.5-1.6,5.1-3.8h44.4c0.3,1.6,1,3.1,2.1,4.3l-46.4,46.4c-1.5-1-3.3-1.6-5.3-1.6C71,122.5,68.9,123.3,67.3,124.6z"/>
	<path class="st1" d="M73.3,74.4c-0.3,0-0.5,0-0.7-0.1c-0.5-0.2-0.9-0.5-1.2-0.9c-0.2-0.2-0.3-0.5-0.4-0.8c-0.1-0.3-0.1-0.5-0.1-0.8
		c0-0.3,0-0.5,0.1-0.8c0-0.1,0.1-0.2,0.1-0.3c0.4-0.9,1.3-1.5,2.3-1.5c0.4,0,0.8,0.1,1.2,0.3c0.1,0.1,0.3,0.2,0.4,0.2
		c0.6,0.5,1,1.2,1,2c0,0.6-0.2,1.1-0.5,1.6C74.8,74,74.1,74.4,73.3,74.4z"/>
	<path class="st2" d="M122.8,69.9H78.3c-0.7-1.6-2.1-2.9-3.8-3.2l0-45.2c1.6-0.3,3.1-1,4.3-2l46.1,46.1
		C123.8,66.7,123.1,68.2,122.8,69.9z"/>
	<path class="st3" d="M124.9,77.7l-46.4,46.4c-1.5-1-3.3-1.6-5.3-1.6c-2.3,0-4.3,0.8-6,2.1L44.8,102l25.6-25.6
		c0.8,0.5,1.8,0.8,2.9,0.8c2.4,0,4.5-1.6,5.1-3.8h44.4C123.2,75,123.9,76.5,124.9,77.7z"/>
	<path class="st4" d="M68.2,73.6L42.3,99.5L20.5,77.7c1.3-1.6,2.1-3.7,2.1-6c0-2.3-0.8-4.5-2.2-6.1l46.3-46.3c1.2,1,2.7,1.7,4.3,2
		l0,45.7c-1.8,0.9-3,2.7-3,4.8C67.9,72.5,68,73,68.2,73.6z"/>
	<g>
		<path class="st4" d="M72.8,8l-5.1,5.1c-0.1-0.5-0.2-1-0.2-1.6c0-3,2.4-5.4,5.4-5.4c3,0,5.4,2.4,5.4,5.4c0,0.5-0.1,1.1-0.2,1.6
			L72.8,8z"/>
		<path class="st2" d="M73.1,136l-5.1-5.1c-0.1,0.5-0.2,1-0.2,1.6c0,3,2.4,5.4,5.4,5.4c3,0,5.4-2.4,5.4-5.4c0-0.5-0.1-1.1-0.2-1.6
			L73.1,136z"/>
	</g>
	<g>
		<path class="st3" d="M136.6,71.5l-5.1-5.1c0.5-0.1,1-0.2,1.6-0.2c3,0,5.4,2.4,5.4,5.4c0,3-2.4,5.4-5.4,5.4c-0.5,0-1.1-0.1-1.6-0.2
			L136.6,71.5z"/>
		<path class="st3" d="M8.6,71.8l5.1-5.1c-0.5-0.1-1-0.2-1.6-0.2c-3,0-5.4,2.4-5.4,5.4c0,3,2.4,5.4,5.4,5.4c0.5,0,1.1-0.1,1.6-0.2
			L8.6,71.8z"/>
	</g>
</g>
<g>
	<path class="st5" d="M167.7,96l6.9-48.3h0.7l19.6,39.6l19.5-39.6h0.7l6.9,48.3h-4.8l-4.7-34.6L195.5,96h-1.2L177,61.1L172.3,96
		H167.7z"/>
	<path class="st5" d="M254.7,47.7h5.6l12.3,19.9l12.2-19.9h5.6L275,72.9V96h-4.7V72.9L254.7,47.7z"/>
	<path class="st5" d="M370.2,56.6l-3.8,2.9c-4.5-5.6-10.2-8.3-17.3-8.3c-5.7,0-10.7,2-14.8,6.1c-4.1,4-6.2,9-6.2,14.8
		s2,10.7,6.1,14.7c4.1,3.9,9.1,5.9,15.2,5.9c6.8,0,12.5-2.6,17-7.9l3.8,2.9c-2.4,3.1-5.4,5.5-9,7.2c-3.6,1.6-7.6,2.5-12,2.5
		c-7.7,0-13.9-2.4-18.8-7.3c-4.9-4.8-7.3-11-7.3-18.4c0-4.6,1.1-8.8,3.4-12.7c2.3-3.9,5.4-6.9,9.4-9.1c4-2.2,8.3-3.3,12.9-3.3
		c4.6,0,8.8,0.9,12.4,2.6C364.8,50.8,367.9,53.4,370.2,56.6z"/>
	<path class="st5" d="M406.8,47.7h27.7v4.8h-22.9v15.1h22.7v4.7h-22.7v19h22.7V96h-27.5V47.7z"/>
</g>
</svg>
