<?xml version="1.0" encoding="utf-8"?>
<!-- Generator: Adobe Illustrator 22.1.0, SVG Export Plug-In . SVG Version: 6.00 Build 0)  -->
<svg version="1.1" id="Layer_1" xmlns="http://www.w3.org/2000/svg" xmlns:xlink="http://www.w3.org/1999/xlink" x="0px" y="0px"
	 viewBox="0 0 417.3 138.2" style="enable-background:new 0 0 417.3 138.2;" xml:space="preserve">
<style type="text/css">
	.st0{fill:#828282;}
	.st1{fill:#787878;}
</style>
<path class="st0" d="M79.1,124.8c0-2-0.7-3.8-1.7-5.3l44.1-44c1.3,0.7,2.7,1.1,4.4,1.1c5,0,9.1-4.1,9.1-9.1c0-5-4.1-9.1-9.1-9.1
	c-1.6,0-3.2,0.5-4.5,1.2l-44-44.1c0.8-1.3,1.2-2.8,1.2-4.5c0-5-4.1-9.1-9.1-9.1s-9.1,4.1-9.1,9.1c0,1.6,0.5,3.2,1.2,4.5L17.3,59.8
	c-1.3-0.8-2.8-1.1-4.4-1.1c-5,0-9.1,4.1-9.1,9.1c0,5,4.1,9.1,9.1,9.1c1.7,0,3.2-0.5,4.6-1.2l44.7,44.6c-0.8,1.3-1.2,2.9-1.2,4.6
	c0,5,4.1,9.1,9.1,9.1C75,134,79.1,129.8,79.1,124.8z M75.1,18.2l43.6,43.6c-0.9,1.2-1.6,2.6-1.9,4.2H74.7c-0.7-1.5-2-2.7-3.6-3V20.2
	C72.5,19.8,73.9,19.1,75.1,18.2z M40.6,94L20,73.3c1.2-1.5,2-3.5,2-5.7c0-2.2-0.8-4.3-2.1-5.8l43.8-43.8c1.1,0.9,2.6,1.6,4.1,1.9
	v43.2c-1.7,0.9-2.8,2.6-2.8,4.5c0,0.6,0.1,1.1,0.3,1.6L40.6,94z M68.1,69.3c-0.2-0.2-0.3-0.5-0.4-0.8s-0.1-0.5-0.1-0.8
	s0-0.5,0.1-0.8c0-0.1,0.1-0.2,0.1-0.3c0.4-0.9,1.2-1.4,2.2-1.4c0.4,0,0.8,0.1,1.1,0.3c0.1,0.1,0.3,0.2,0.4,0.2
	c0.6,0.5,0.9,1.1,0.9,1.9c0,0.6-0.2,1-0.5,1.5c-0.5,0.6-1.1,0.9-1.9,0.9c-0.3,0-0.5,0-0.7-0.1C68.7,69.9,68.4,69.7,68.1,69.3z
	 M64.3,117.7L43,96.3l24.2-24.2c0.8,0.5,1.7,0.8,2.7,0.8c2.3,0,4.3-1.5,4.8-3.6h42c0.3,1.5,0.9,2.9,2,4.1l-43.9,43.9
	c-1.4-0.9-3.1-1.5-5-1.5C67.8,115.7,65.8,116.5,64.3,117.7z"/>
<path class="st0" d="M70,70.2c-0.3,0-0.5,0-0.7-0.1c-0.5-0.2-0.9-0.5-1.1-0.9c-0.2-0.2-0.3-0.5-0.4-0.8s-0.1-0.5-0.1-0.8
	s0-0.5,0.1-0.8c0-0.1,0.1-0.2,0.1-0.3c0.4-0.9,1.2-1.4,2.2-1.4c0.4,0,0.8,0.1,1.1,0.3c0.1,0.1,0.3,0.2,0.4,0.2
	c0.6,0.5,0.9,1.1,0.9,1.9c0,0.6-0.2,1-0.5,1.5C71.4,69.8,70.7,70.2,70,70.2z"/>
<g>
	<path class="st0" d="M69.5,7.4l-4.8,4.8c-0.1-0.5-0.2-0.9-0.2-1.5c0-2.8,2.3-5.1,5.1-5.1s5.1,2.3,5.1,5.1c0,0.5-0.1,1-0.2,1.5
		L69.5,7.4z"/>
	<path class="st0" d="M69.8,128.5l-4.8-4.8c-0.1,0.5-0.2,0.9-0.2,1.5c0,2.8,2.3,5.1,5.1,5.1s5.1-2.3,5.1-5.1c0-0.5-0.1-1-0.2-1.5
		L69.8,128.5z"/>
</g>
<g>
	<path class="st0" d="M129.9,67.5l-4.8-4.8c0.5-0.1,0.9-0.2,1.5-0.2c2.8,0,5.1,2.3,5.1,5.1c0,2.8-2.3,5.1-5.1,5.1
		c-0.5,0-1-0.1-1.5-0.2L129.9,67.5z"/>
	<path class="st0" d="M8.7,67.8l4.8-4.8c-0.5-0.1-0.9-0.2-1.5-0.2C9.2,62.7,7,65,7,67.9S9.2,73,12.1,73c0.5,0,1-0.1,1.5-0.2
		L8.7,67.8z"/>
</g>
<g>
	<path class="st1" d="M159.3,90.7l6.5-45.7h0.7L185,82.4L203.5,45h0.7l6.5,45.7h-4.5l-4.4-32.7l-16.1,32.7h-1.1l-16.4-33l-4.4,33
		H159.3z"/>
	<path class="st1" d="M241.6,45h5.3l11.6,18.8L270.1,45h5.3l-14.6,23.8v21.9h-4.4V68.8L241.6,45z"/>
	<path class="st1" d="M350.9,53.4l-3.6,2.7c-4.3-5.3-9.7-7.9-16.4-7.9c-5.4,0-10.1,1.9-14,5.8c-3.9,3.8-5.9,8.5-5.9,14
		c0,5.5,1.9,10.1,5.8,13.9c3.9,3.7,8.6,5.6,14.4,5.6c6.4,0,11.8-2.5,16.1-7.5l3.6,2.7c-2.3,2.9-5.1,5.2-8.5,6.8
		C339,91.1,335.2,92,331,92c-7.3,0-13.2-2.3-17.8-6.9c-4.6-4.5-6.9-10.4-6.9-17.4c0-4.4,1-8.3,3.2-12c2.2-3.7,5.1-6.5,8.9-8.6
		s7.9-3.1,12.2-3.1c4.4,0,8.3,0.9,11.7,2.5C345.8,47.9,348.7,50.3,350.9,53.4z"/>
	<path class="st1" d="M385.5,45h26.2v4.5h-21.7v14.3h21.5v4.4h-21.5v18h21.5v4.4h-26L385.5,45L385.5,45z"/>
</g>
</svg>
